<?xml version="1.0" standalone="no"?>
<!DOCTYPE svg PUBLIC "-//W3C//DTD SVG 20010904//EN"
 "http://www.w3.org/TR/2001/REC-SVG-20010904/DTD/svg10.dtd">
<svg version="1.0" xmlns="http://www.w3.org/2000/svg"
 width="512.000000pt" height="512.000000pt" viewBox="0 0 512.000000 512.000000"
 preserveAspectRatio="xMidYMid meet">
<metadata>
Created by potrace 1.16, written by Peter Selinger 2001-2019
</metadata>
<g transform="translate(0.000000,512.000000) scale(0.100000,-0.100000)"
fill="#000000" stroke="none">
<path d="M2308 4484 c-403 -63 -747 -236 -1047 -528 -312 -304 -499 -657 -571
-1076 -18 -104 -24 -434 -11 -547 56 -452 238 -819 576 -1158 273 -273 591
-452 936 -525 146 -32 438 -39 597 -16 320 47 610 169 872 367 411 309 665
703 761 1175 31 155 38 466 14 637 -63 446 -254 819 -586 1143 -301 292 -652
468 -1054 529 -122 18 -367 18 -487 -1z m377 -94 c348 -34 711 -184 975 -405
92 -78 231 -220 292 -300 189 -250 293 -472 364 -780 26 -113 28 -134 29 -360
0 -252 -14 -389 -39 -379 -9 3 -19 -17 -31 -63 -18 -72 -82 -242 -95 -257 -10
-10 -2 22 34 149 103 360 87 894 -34 1135 -73 145 -220 352 -284 399 -25 19
-49 43 -52 54 -9 28 -75 98 -86 91 -5 -4 9 -24 31 -45 47 -46 54 -67 14 -45
-16 9 -50 25 -77 36 -40 17 -46 23 -36 35 10 12 1 26 -51 81 -75 77 -239 204
-289 222 -19 8 -63 27 -98 43 -34 16 -66 29 -70 29 -15 0 55 -42 127 -75 41
-20 72 -38 69 -41 -3 -2 -35 3 -72 12 -52 13 -78 26 -115 60 -27 24 -52 44
-55 44 -15 0 -4 -30 15 -40 11 -7 18 -14 15 -17 -7 -7 -83 24 -116 47 -33 24
-143 54 -273 76 -73 12 -139 15 -265 12 -192 -5 -295 -25 -343 -66 -28 -23
-32 -24 -41 -9 -5 9 -13 17 -18 17 -5 0 -37 -23 -72 -51 -35 -28 -98 -71 -141
-97 -111 -66 -80 -64 38 3 54 31 100 54 102 51 7 -6 -58 -46 -144 -90 -71 -35
-72 -35 -79 -14 -7 24 8 39 106 107 222 153 534 204 892 145 53 -9 108 -14
122 -10 28 7 34 27 13 45 -19 15 -151 39 -285 52 -250 23 -579 -39 -807 -154
-95 -47 -125 -69 -145 -106 -8 -16 -43 -51 -77 -80 -61 -50 -283 -303 -283
-321 0 -6 8 -10 17 -10 9 0 27 -10 40 -22 37 -34 31 -82 -23 -183 -89 -169
-173 -410 -200 -572 -30 -181 -4 -408 69 -598 46 -120 126 -290 133 -283 3 4
-2 20 -10 37 -9 16 -16 35 -16 42 0 6 14 -15 31 -47 164 -313 566 -601 964
-690 135 -30 450 -28 533 3 9 4 13 2 9 -4 -23 -38 -400 -51 -547 -19 -346 75
-641 260 -862 541 -43 55 -92 115 -109 133 -37 40 -137 245 -173 357 -58 176
-76 391 -47 544 16 85 93 309 148 434 56 127 59 137 41 137 -29 0 -87 -51
-132 -117 -52 -76 -87 -169 -113 -301 -25 -123 -25 -436 0 -546 23 -105 23
-116 -4 -90 -27 28 -36 70 -50 244 -21 247 11 442 112 684 88 211 119 297 126
344 4 30 18 64 39 94 18 26 30 50 25 52 -10 6 -146 -168 -191 -245 -65 -109
-226 -508 -235 -581 -4 -34 -1 -28 15 27 12 39 26 75 32 80 7 7 8 4 4 -10 -44
-155 -37 -560 13 -732 8 -27 7 -31 -6 -26 -20 8 -15 -17 34 -147 45 -121 101
-230 119 -230 8 0 14 -5 14 -11 0 -17 134 -209 203 -290 65 -76 187 -188 187
-172 0 5 -11 20 -25 33 -43 41 -25 71 29 50 16 -6 65 -37 109 -69 94 -67 189
-120 277 -152 33 -12 58 -24 55 -27 -10 -10 -134 42 -232 99 -57 33 -111 59
-122 59 -29 0 -33 -27 -8 -55 30 -34 177 -120 240 -141 29 -9 84 -30 122 -47
80 -34 235 -81 333 -99 76 -14 420 -17 496 -5 l49 9 -22 21 -21 21 70 12 c92
16 104 26 95 81 -3 24 -2 51 5 63 6 11 71 49 153 90 158 77 267 156 267 194 0
15 14 32 44 53 49 35 179 180 236 263 54 80 137 250 170 349 16 47 29 80 29
72 2 -27 -69 -221 -109 -300 -22 -45 -61 -113 -85 -151 -46 -72 -45 -81 5 -55
69 35 202 328 230 505 15 95 12 300 -5 415 -18 120 -42 206 -94 345 -22 57
-38 106 -36 108 14 15 102 -201 141 -345 31 -118 43 -347 25 -482 -13 -100
-66 -263 -118 -363 -49 -94 -46 -88 -35 -88 18 0 81 112 113 202 18 49 36 91
40 94 4 2 23 -9 41 -25 l33 -29 -19 -54 c-50 -144 -190 -381 -323 -545 -86
-106 -170 -184 -302 -277 -116 -82 -104 -87 16 -7 206 138 383 347 536 631
115 214 186 498 187 747 0 106 -22 279 -50 387 -40 157 -127 332 -182 366 -16
10 -48 46 -71 81 -45 70 -153 181 -237 244 -125 94 -355 229 -470 275 -100 40
-98 52 2 15 144 -54 413 -201 480 -263 15 -13 37 -26 50 -27 13 -2 55 -19 93
-38 39 -19 75 -36 80 -38 70 -28 187 -168 288 -344 127 -221 184 -579 143
-905 -23 -181 -46 -281 -99 -432 -54 -155 -122 -278 -203 -366 -33 -37 -79
-93 -103 -125 -46 -62 -151 -171 -158 -163 -3 3 22 43 56 89 34 46 61 87 61
91 0 5 -29 -28 -65 -73 -105 -129 -254 -239 -458 -336 -226 -108 -371 -144
-618 -152 -241 -8 -414 11 -606 68 -73 22 -73 22 -51 40 23 21 22 25 -7 31
-12 2 -19 -2 -18 -10 2 -6 -2 -12 -8 -12 -5 0 -7 -4 -4 -10 3 -6 -1 -7 -9 -4
-9 3 -16 1 -16 -4 0 -15 198 -78 307 -98 138 -26 475 -31 605 -9 195 32 466
138 637 249 39 25 71 43 71 41 0 -12 -177 -120 -278 -170 -129 -65 -260 -110
-394 -136 -153 -29 -449 -27 -640 5 -380 65 -594 165 -855 397 -39 35 -101 89
-138 119 -160 132 -335 411 -413 660 -109 344 -117 681 -25 1035 109 420 419
837 811 1090 158 101 399 198 585 235 187 37 309 45 462 30z m73 -226 c109
-16 183 -41 87 -29 -237 29 -318 29 -505 -2 -185 -30 -342 -90 -461 -175 -129
-92 -209 -160 -209 -178 0 -12 -13 -26 -32 -36 -18 -9 -41 -23 -50 -32 -10 -8
-18 -12 -18 -8 0 4 16 20 35 37 19 17 35 38 35 45 0 21 83 107 140 146 35 23
49 39 47 53 -6 51 330 164 563 188 92 10 273 5 368 -9z m-54 -134 c5 -5 -48
-9 -130 -9 -135 1 -269 -12 -347 -32 -28 -7 -37 -15 -35 -27 4 -19 0 -19 153
4 259 39 605 -16 840 -133 139 -70 255 -146 242 -160 -3 -2 -35 14 -71 36
-339 208 -673 285 -1017 236 -68 -10 -136 -18 -151 -19 -17 -1 -38 -13 -55
-32 -18 -20 -57 -43 -110 -64 -133 -52 -332 -190 -480 -334 -68 -65 -68 -51
-1 21 104 109 274 233 452 329 73 39 119 72 140 98 17 21 42 44 56 51 34 17
116 35 203 45 85 10 298 3 311 -10z m6 -135 c224 -30 502 -141 629 -251 57
-50 31 -49 -45 2 -275 184 -649 271 -940 219 -130 -23 -225 -55 -360 -120
-252 -122 -459 -333 -589 -600 -87 -178 -122 -325 -134 -560 l-8 -140 -3 130
c-2 113 -4 124 -11 80 -9 -47 -5 -142 8 -230 6 -37 7 -38 15 -15 7 23 7 22 4
-5 -10 -71 113 -356 226 -525 78 -117 248 -292 343 -353 150 -96 308 -160 488
-199 152 -32 405 -32 537 1 295 74 532 243 709 504 140 209 205 423 205 687 1
160 -13 245 -66 410 -17 52 -32 105 -34 118 -3 29 -73 148 -130 223 -67 88
-234 239 -329 298 -106 66 -219 113 -373 154 -110 29 -127 31 -297 31 -154 0
-192 -4 -260 -22 -92 -25 -238 -82 -231 -90 3 -2 29 6 58 18 153 66 366 99
521 81 283 -33 538 -152 749 -350 186 -175 281 -349 333 -613 22 -110 30 -308
16 -411 -52 -386 -300 -741 -638 -911 -324 -162 -742 -153 -1110 24 -227 110
-453 357 -589 644 -201 424 -85 978 280 1341 285 283 713 407 1105 319 267
-60 462 -167 670 -369 133 -129 248 -302 275 -415 6 -23 5 -23 -6 -7 -33 48
-37 48 -14 0 34 -69 73 -206 92 -323 25 -151 10 -339 -40 -505 -21 -68 -11
-69 19 -2 38 87 65 238 65 365 0 145 -20 259 -76 439 -5 16 -4 16 5 2 23 -35
61 -176 77 -282 26 -178 1 -399 -61 -534 -35 -77 -149 -275 -209 -363 -163
-239 -435 -425 -725 -498 -91 -22 -127 -26 -256 -26 -174 0 -290 18 -442 69
-127 42 -189 74 -328 165 -236 156 -435 414 -533 691 -81 230 -95 426 -43 634
87 350 209 562 430 748 110 92 154 122 261 180 246 131 496 178 760 142z m668
-24 c53 -27 212 -137 212 -147 0 -2 -37 21 -82 53 -44 31 -109 72 -142 90 -75
40 -66 44 12 4z m-1678 -151 c-6 -11 -14 -20 -18 -20 -5 0 -62 -50 -128 -112
-85 -80 -120 -107 -122 -95 -5 24 25 62 115 147 122 115 126 118 146 108 14
-7 15 -13 7 -28z m2041 -310 c116 -154 103 -156 -26 -5 -32 39 -96 109 -142
156 -82 85 -90 98 -75 113 10 11 148 -138 243 -264z m-151 78 c128 -142 187
-222 268 -368 75 -134 121 -263 147 -410 17 -95 21 -358 5 -405 -6 -21 -7 10
-4 100 10 240 -42 450 -180 722 -77 152 -130 226 -275 383 -40 44 -69 80 -63
80 5 0 51 -46 102 -102z m-2321 44 c-4 -26 -28 -94 -53 -150 -25 -56 -46 -104
-46 -106 0 -3 -24 -62 -54 -133 -81 -190 -100 -292 -100 -528 0 -155 5 -209
22 -295 25 -120 27 -141 6 -86 -21 58 -43 197 -50 321 -7 123 5 256 38 419 21
101 21 109 5 120 -15 12 -12 23 37 138 74 171 96 213 151 286 26 34 48 62 49
62 2 0 0 -22 -5 -48z m2289 -143 c2 -6 -30 26 -72 70 -42 44 -76 82 -76 85 0
8 144 -143 148 -155z m362 -144 c0 -5 -5 -3 -10 5 -5 8 -10 20 -10 25 0 6 5 3
10 -5 5 -8 10 -19 10 -25z m-201 -31 c12 -20 20 -38 18 -40 -2 -2 -14 14 -26
36 -28 50 -21 53 8 4z m251 -74 c32 -77 70 -219 69 -255 0 -11 -13 27 -29 85
-29 106 -44 151 -75 225 -9 22 -12 35 -6 30 5 -6 24 -44 41 -85z m-2734 -37
c-8 -15 -15 -25 -16 -21 0 12 23 58 27 54 3 -2 -2 -17 -11 -33z m-42 -111
c-15 -40 -29 -71 -31 -69 -2 3 8 37 23 76 15 39 28 70 30 68 2 -2 -8 -36 -22
-75z m2918 -398 c1 -106 -4 -169 -16 -218 -18 -78 -67 -186 -93 -207 -10 -9
-7 2 10 32 48 82 69 187 70 344 0 100 -4 157 -16 199 l-16 60 30 -31 31 -30 0
-149z m-215 -336 c-3 -8 -6 -5 -6 6 -1 11 2 17 5 13 3 -3 4 -12 1 -19z m-2787
-113 c0 -36 41 -140 106 -266 50 -97 88 -154 229 -339 15 -19 4 -10 -24 20
-73 78 -169 216 -218 313 -70 137 -126 275 -119 292 8 23 26 9 26 -20z m120
-80 c44 -127 83 -201 146 -281 30 -38 70 -103 90 -144 20 -41 47 -91 61 -110
13 -19 -6 -4 -42 35 -87 91 -170 218 -251 383 -70 143 -86 198 -63 213 19 12
23 5 59 -96z m-141 -27 c23 -57 45 -110 48 -118 3 -8 4 -13 1 -10 -18 15 -121
247 -107 240 9 -5 35 -55 58 -112z m3218 90 c-3 -8 -6 -5 -6 6 -1 11 2 17 5
13 3 -3 4 -12 1 -19z m-37 -145 c-20 -60 -72 -184 -76 -180 -2 2 6 28 20 58
13 30 32 80 42 111 9 32 19 56 22 54 2 -3 -1 -22 -8 -43z m-115 -263 c-14 -27
-28 -50 -30 -50 -3 0 6 23 20 50 14 28 28 50 30 50 3 0 -6 -22 -20 -50z m-45
-80 c-6 -11 -13 -20 -16 -20 -2 0 0 9 6 20 6 11 13 20 16 20 2 0 0 -9 -6 -20z
m-2327 -253 c173 -116 366 -198 560 -238 117 -23 319 -27 460 -9 90 12 114 10
79 -9 -58 -31 -346 -40 -502 -16 -198 30 -419 116 -584 227 -65 44 -221 190
-238 223 -6 11 19 -9 56 -45 36 -36 112 -96 169 -133z m2197 109 c0 -2 -8 -10
-17 -17 -16 -13 -17 -12 -4 4 13 16 21 21 21 13z m-30 -39 c0 -2 -10 -12 -22
-23 l-23 -19 19 23 c18 21 26 27 26 19z m11 -45 c-17 -22 -38 -45 -48 -53 -10
-8 2 10 26 39 51 60 68 71 22 14z m-801 -57 c0 -6 -56 -35 -67 -35 -4 1 8 9
27 20 39 22 40 22 40 15z m740 -18 c0 -2 -10 -12 -22 -23 l-23 -19 19 23 c18
21 26 27 26 19z m-973 -73 c-3 -3 -12 -4 -19 -1 -8 3 -5 6 6 6 11 1 17 -2 13
-5z m-40 -10 c-3 -3 -12 -4 -19 -1 -8 3 -5 6 6 6 11 1 17 -2 13 -5z m-44 -11
c-7 -2 -19 -2 -25 0 -7 3 -2 5 12 5 14 0 19 -2 13 -5z m-50 -10 c-7 -2 -19 -2
-25 0 -7 3 -2 5 12 5 14 0 19 -2 13 -5z m-65 -10 c-10 -2 -28 -2 -40 0 -13 2
-5 4 17 4 22 1 32 -1 23 -4z m-120 -10 c-10 -2 -28 -2 -40 0 -13 2 -5 4 17 4
22 1 32 -1 23 -4z m-1187 -50 c13 -16 12 -17 -3 -4 -17 13 -22 21 -14 21 2 0
10 -8 17 -17z m2189 -7 c0 -2 -8 -10 -17 -17 -16 -13 -17 -12 -4 4 13 16 21
21 21 13z m-2135 -36 c10 -11 16 -20 13 -20 -3 0 -13 9 -23 20 -10 11 -16 20
-13 20 3 0 13 -9 23 -20z m675 -23 c124 -33 245 -47 405 -47 88 0 125 -3 115
-10 -22 -14 -219 -12 -340 4 -58 8 -148 28 -200 44 -52 17 -104 33 -115 36
-11 3 -6 4 10 2 17 -2 73 -15 125 -29z m1380 -52 c0 -11 -142 -97 -237 -144
-128 -64 -277 -115 -432 -148 -111 -24 -149 -27 -321 -27 -212 -1 -281 9 -480
65 -101 28 -335 136 -390 178 -14 11 28 -6 93 -39 142 -70 302 -124 412 -140
54 -8 192 -10 405 -8 320 4 326 5 415 32 191 58 367 133 480 204 54 34 55 35
55 27z"/>
<path d="M2445 4368 c-262 -15 -559 -111 -783 -250 -253 -158 -503 -435 -566
-628 -16 -47 -60 -159 -98 -249 -73 -172 -113 -306 -122 -412 l-6 -64 15 80
c27 140 55 226 127 385 39 85 81 183 94 218 64 169 128 258 289 405 201 184
390 297 628 375 214 71 314 87 532 86 158 0 208 -4 295 -23 314 -67 631 -223
848 -417 106 -94 227 -229 283 -315 77 -117 234 -459 272 -592 35 -122 57
-166 57 -113 0 52 -41 169 -102 291 -33 66 -79 164 -103 218 -48 105 -140 268
-189 332 -140 183 -370 372 -583 479 -308 154 -576 213 -888 194z"/>
<path d="M2305 4233 c-91 -12 -211 -38 -295 -65 -94 -30 -246 -101 -285 -133
-26 -22 -20 -19 115 47 63 32 154 68 202 82 93 27 244 56 291 56 15 0 27 5 27
10 0 6 -6 9 -12 9 -7 -1 -26 -4 -43 -6z"/>
<path d="M3006 4142 c5 -4 35 -16 68 -27 32 -10 101 -43 153 -71 52 -29 93
-48 91 -42 -6 16 -132 86 -216 119 -69 28 -117 38 -96 21z"/>
<path d="M3448 3953 c-24 -6 -23 -15 3 -31 15 -10 24 -11 32 -3 15 15 -11 39
-35 34z"/>
<path d="M1532 3803 c-93 -93 -221 -258 -209 -269 3 -3 42 44 86 104 45 61
118 144 162 186 44 42 75 76 69 76 -6 0 -55 -44 -108 -97z"/>
<path d="M3580 3859 c0 -5 4 -8 8 -5 5 3 41 -24 81 -61 39 -36 74 -63 77 -61
3 3 -27 35 -67 72 -67 62 -99 80 -99 55z"/>
<path d="M3690 3573 c13 -10 49 -32 80 -50 30 -18 49 -33 43 -33 -24 0 -13
-21 55 -99 75 -88 136 -188 194 -323 90 -209 118 -351 118 -599 0 -179 -16
-292 -62 -438 -28 -92 -36 -106 -60 -115 -27 -10 -35 -25 -21 -39 3 -4 12 -2
20 4 17 15 17 0 -2 -44 -19 -46 -19 -70 0 -37 21 36 103 298 122 388 24 111
23 444 0 569 -23 120 -74 268 -148 422 -118 247 -180 331 -288 385 -58 30 -87
34 -51 9z"/>
<path d="M3911 3446 c7 -14 17 -25 21 -24 17 6 13 21 -10 36 -23 15 -23 15
-11 -12z"/>
<path d="M1266 3344 c-10 -25 1 -29 14 -5 6 12 7 21 1 21 -5 0 -12 -7 -15 -16z"/>
<path d="M800 2407 c0 -35 57 -289 81 -360 66 -196 249 -479 405 -628 61 -57
253 -204 379 -289 82 -56 296 -172 303 -165 3 2 -8 12 -24 20 -193 107 -276
159 -415 260 -193 140 -303 247 -416 405 -172 242 -249 441 -278 718 -5 43
-11 62 -21 62 -8 0 -14 -10 -14 -23z"/>
<path d="M916 2320 c6 -65 34 -173 74 -287 120 -339 441 -695 816 -907 104
-59 262 -121 404 -159 113 -30 120 -31 340 -30 176 0 237 4 280 16 62 18 79
19 -156 -4 -283 -27 -586 40 -860 192 -129 72 -366 251 -448 340 -211 228
-345 461 -410 716 -14 54 -30 116 -35 138 -10 38 -10 38 -5 -15z"/>
<path d="M3985 1820 c-3 -5 -1 -10 4 -10 6 0 11 5 11 10 0 6 -2 10 -4 10 -3 0
-8 -4 -11 -10z"/>
<path d="M3956 1744 c-9 -25 -7 -34 9 -34 16 0 38 34 28 44 -12 11 -31 6 -37
-10z"/>
<path d="M3770 1725 c-13 -14 -19 -25 -13 -25 6 0 18 11 27 25 9 14 15 25 13
25 -2 0 -14 -11 -27 -25z"/>
<path d="M3530 1578 c-35 -39 -65 -78 -66 -86 -4 -21 -30 -47 -108 -106 -75
-57 -125 -85 -248 -140 -83 -37 -103 -63 -73 -96 20 -22 45 -16 167 36 84 36
189 105 170 112 -6 2 -81 -31 -167 -73 -86 -42 -158 -75 -161 -73 -11 12 55
52 176 108 74 35 155 76 180 93 59 41 159 136 175 167 11 22 30 130 23 130 -2
0 -32 -32 -68 -72z"/>
<path d="M3653 1548 c-62 -83 -243 -261 -337 -332 -42 -32 -116 -78 -164 -103
-99 -53 -97 -51 -90 -58 2 -3 45 14 94 38 49 24 105 49 124 57 90 35 237 155
349 285 93 108 111 134 111 157 0 39 -40 18 -87 -44z"/>
<path d="M3830 1545 c0 -8 5 -15 10 -15 6 0 10 7 10 15 0 8 -4 15 -10 15 -5 0
-10 -7 -10 -15z"/>
<path d="M2475 3689 c-84 -8 -192 -30 -235 -49 l-25 -11 25 6 c219 46 225 47
350 42 140 -6 237 -28 364 -82 258 -112 498 -359 616 -632 54 -126 71 -202 77
-341 12 -256 -56 -469 -243 -762 -11 -16 -6 -14 14 8 79 88 190 336 224 502
29 142 22 361 -17 480 -102 317 -334 592 -619 734 -180 89 -340 121 -531 105z"/>
<path d="M1970 3563 c-127 -74 -347 -318 -424 -470 -41 -81 -31 -74 24 17 125
207 294 386 432 456 45 23 58 34 40 34 -4 0 -37 -17 -72 -37z"/>
<path d="M2445 3589 c-215 -29 -407 -122 -577 -278 -70 -65 -175 -196 -207
-260 -20 -38 -74 -221 -84 -281 l-6 -35 11 35 c6 19 28 90 48 157 32 104 46
135 96 203 68 95 193 218 283 279 81 56 205 114 301 141 108 31 310 39 416 15
152 -33 289 -118 445 -276 110 -112 189 -217 256 -343 30 -55 51 -90 48 -76
-11 39 -80 165 -132 238 -62 87 -208 239 -302 314 -173 138 -380 196 -596 167z"/>
<path d="M2428 3489 c-182 -27 -448 -166 -574 -302 -169 -182 -272 -480 -244
-708 27 -228 130 -430 302 -596 261 -250 634 -317 978 -176 305 125 469 317
532 623 26 125 21 317 -11 434 -47 171 -131 307 -280 457 -123 123 -202 180
-308 221 -135 53 -258 67 -395 47z m212 -9 c135 -22 273 -82 375 -163 28 -23
33 -31 25 -46 -13 -25 32 -70 53 -53 30 25 188 -172 257 -321 70 -148 96 -362
66 -533 -56 -322 -220 -520 -539 -650 -270 -110 -598 -79 -831 77 -83 55 -231
206 -284 288 -82 129 -131 284 -139 442 -8 164 19 284 103 454 91 186 197 289
410 397 195 100 347 132 504 108z"/>
<path d="M2405 3360 c-260 -40 -483 -199 -594 -424 -57 -115 -73 -194 -73
-356 1 -337 114 -567 358 -726 298 -195 645 -190 929 11 66 47 205 188 205
208 0 6 -19 -10 -43 -38 -174 -205 -393 -310 -642 -308 -129 1 -216 22 -341
83 -212 103 -339 244 -408 453 -56 168 -61 440 -11 577 91 250 289 425 554
491 120 30 311 24 426 -14 238 -78 439 -289 519 -545 58 -187 57 -345 -5 -516
-36 -101 -88 -174 -190 -270 -39 -37 -68 -70 -65 -73 3 -3 50 40 105 95 113
114 156 189 193 333 26 104 21 270 -11 394 -77 291 -303 530 -573 605 -85 24
-245 33 -333 20z"/>
<path d="M2340 3299 c-208 -53 -393 -199 -476 -374 -55 -116 -68 -181 -68
-355 -1 -176 11 -235 70 -352 131 -263 330 -412 597 -448 136 -19 251 -1 386
61 67 31 100 55 168 121 139 136 196 219 243 358 31 93 38 259 16 370 -53 260
-237 491 -466 584 -143 59 -327 73 -470 35z m103 -56 c-7 -2 -19 -2 -25 0 -7
3 -2 5 12 5 14 0 19 -2 13 -5z m-56 -9 c-3 -3 -12 -4 -19 -1 -8 3 -5 6 6 6 11
1 17 -2 13 -5z m266 -1 c-7 -2 -19 -2 -25 0 -7 3 -2 5 12 5 14 0 19 -2 13 -5z
m44 -9 c-3 -3 -12 -4 -19 -1 -8 3 -5 6 6 6 11 1 17 -2 13 -5z m-427 -29 c-14
-8 -29 -14 -35 -14 -5 0 1 6 15 14 14 8 30 14 35 14 6 0 -1 -6 -15 -14z m-50
-20 c0 -2 -10 -9 -22 -15 -22 -11 -22 -10 -4 4 21 17 26 19 26 11z m503 -20
c26 -9 46 -19 44 -21 -2 -2 -24 3 -48 12 -26 10 -89 18 -154 21 -125 6 -197
-8 -302 -57 -35 -16 -63 -27 -63 -24 0 9 124 63 180 79 74 20 275 15 343 -10z
m-583 -28 c0 -2 -10 -12 -22 -23 l-23 -19 19 23 c18 21 26 27 26 19z m680 -12
c17 -9 30 -18 30 -21 0 -4 -59 23 -69 32 -10 9 13 3 39 -11z m-158 -16 c90
-19 197 -76 258 -138 60 -62 122 -172 145 -261 19 -72 19 -211 0 -285 -36
-137 -146 -265 -290 -336 -74 -37 -93 -42 -172 -46 -111 -6 -188 8 -281 52
-123 58 -228 176 -271 303 -31 90 -29 220 4 319 77 228 248 354 480 354 227 0
375 -99 460 -309 52 -128 52 -286 0 -400 -27 -59 -124 -162 -195 -207 -145
-92 -353 -86 -506 13 -160 105 -231 243 -221 431 3 68 11 110 26 146 54 121
163 217 293 256 103 32 240 24 329 -18 135 -63 242 -215 264 -373 15 -107 -39
-257 -117 -325 -59 -51 -165 -101 -248 -116 -128 -23 -240 9 -365 104 -74 56
-102 97 -117 170 -10 47 -9 67 6 132 37 155 110 257 229 314 183 90 389 14
480 -178 39 -83 48 -184 22 -261 -26 -77 -127 -177 -213 -209 -81 -30 -191
-26 -267 10 -98 46 -182 158 -191 252 l-3 42 9 -41 c22 -103 103 -204 195
-245 162 -72 359 0 443 162 32 60 34 69 30 146 -10 202 -157 344 -356 345 -65
0 -83 -4 -147 -36 -116 -57 -172 -132 -215 -287 -16 -60 -18 -80 -9 -113 28
-104 124 -216 227 -264 78 -36 189 -41 278 -14 287 88 364 426 149 651 -97
102 -221 145 -357 122 -187 -31 -316 -162 -348 -354 -26 -149 8 -256 110 -351
160 -147 371 -184 556 -95 73 34 164 114 199 173 81 138 66 351 -35 503 -93
142 -188 198 -355 210 -285 19 -509 -181 -532 -476 -21 -273 186 -501 477
-526 187 -17 365 75 479 246 63 95 88 248 60 381 -17 82 -82 209 -140 273
-185 202 -553 207 -755 9 -179 -174 -226 -438 -119 -671 13 -29 22 -53 19 -53
-9 0 -60 122 -72 170 -50 207 5 400 157 550 78 77 150 121 238 145 60 16 205
19 275 4z m-572 -12 c0 -2 -17 -19 -37 -38 l-38 -34 34 38 c33 34 41 42 41 34z
m810 -23 c0 -2 -9 0 -20 6 -11 6 -20 13 -20 16 0 2 9 0 20 -6 11 -6 20 -13 20
-16z m86 -46 l29 -33 -32 29 c-31 28 -38 36 -30 36 2 0 16 -15 33 -32z m-976
-21 c0 -2 -10 -12 -22 -23 l-23 -19 19 23 c18 21 26 27 26 19z m1051 -54 c13
-16 12 -17 -3 -4 -10 7 -18 15 -18 17 0 8 8 3 21 -13z m-493 -80 c-21 -2 -55
-2 -75 0 -21 2 -4 4 37 4 41 0 58 -2 38 -4z m-176 -33 c-56 -29 -101 -69 -145
-130 -17 -24 -17 -24 -6 -2 28 60 153 162 198 162 8 0 -13 -14 -47 -30z m-404
-5 c-6 -14 -13 -23 -15 -21 -5 5 15 46 22 46 3 0 -1 -11 -7 -25z m722 -11 c0
-2 -9 0 -20 6 -11 6 -20 13 -20 16 0 2 9 0 20 -6 11 -6 20 -13 20 -16z m410
-9 c0 -5 -5 -3 -10 5 -5 8 -10 20 -10 25 0 6 5 3 10 -5 5 -8 10 -19 10 -25z
m-310 -82 c0 -8 -9 0 -50 45 l-45 47 48 -45 c26 -24 47 -45 47 -47z m-860 2
c-10 -33 -19 -53 -19 -44 -1 18 30 112 35 107 2 -2 -5 -31 -16 -63z m1197 -17
c-3 -8 -6 -5 -6 6 -1 11 2 17 5 13 3 -3 4 -12 1 -19z m-1250 -10 c-3 -8 -6 -5
-6 6 -1 11 2 17 5 13 3 -3 4 -12 1 -19z m1260 -30 c-3 -8 -6 -5 -6 6 -1 11 2
17 5 13 3 -3 4 -12 1 -19z m-1270 -150 c-2 -29 -3 -6 -3 52 0 58 1 81 3 53 2
-29 2 -77 0 -105z m337 130 c-4 -13 -11 -39 -15 -58 -5 -29 -7 -30 -8 -9 -1
26 17 89 26 89 2 0 1 -10 -3 -22z m-297 -40 c-2 -13 -4 -5 -4 17 -1 22 1 32 4
23 2 -10 2 -28 0 -40z m1240 -5 c-3 -10 -5 -2 -5 17 0 19 2 27 5 18 2 -10 2
-26 0 -35z m-587 -47 c0 -32 -26 -53 -48 -39 -24 14 -27 54 -7 70 24 17 55 -1
55 -31z m597 -18 c-3 -8 -6 -5 -6 6 -1 11 2 17 5 13 3 -3 4 -12 1 -19z m-1250
-80 c-2 -13 -4 -5 -4 17 -1 22 1 32 4 23 2 -10 2 -28 0 -40z m1240 5 c-3 -10
-5 -2 -5 17 0 19 2 27 5 18 2 -10 2 -26 0 -35z m-1270 -40 c-3 -10 -5 -4 -5
12 0 17 2 24 5 18 2 -7 2 -21 0 -30z m1300 15 c-3 -8 -6 -5 -6 6 -1 11 2 17 5
13 3 -3 4 -12 1 -19z m-40 -20 c-3 -8 -6 -5 -6 6 -1 11 2 17 5 13 3 -3 4 -12
1 -19z m-1220 -30 c-3 -7 -5 -2 -5 12 0 14 2 19 5 13 2 -7 2 -19 0 -25z m-30
-10 c-3 -8 -6 -5 -6 6 -1 11 2 17 5 13 3 -3 4 -12 1 -19z m1270 -20 c-3 -8 -6
-5 -6 6 -1 11 2 17 5 13 3 -3 4 -12 1 -19z m-1248 -43 c0 -5 -4 -3 -9 5 -5 8
-9 22 -9 30 0 16 17 -16 18 -35z m1192 8 c-12 -20 -14 -14 -5 12 4 9 9 14 11
11 3 -2 0 -13 -6 -23z m-1141 -48 c0 -5 -5 -3 -10 5 -5 8 -10 20 -10 25 0 6 5
3 10 -5 5 -8 10 -19 10 -25z m1171 8 c-12 -20 -14 -14 -5 12 4 9 9 14 11 11 3
-2 0 -13 -6 -23z m-1177 -70 c9 -18 14 -33 12 -33 -6 0 -36 55 -36 66 0 11 5
3 24 -33z m1055 -5 c-7 -13 -44 -55 -83 -94 -66 -66 -136 -112 -196 -128 -14
-4 7 9 47 29 78 38 163 110 208 174 30 45 43 54 24 19z m-794 -159 c33 -22 57
-39 52 -39 -28 0 -207 148 -207 172 0 4 21 -16 48 -44 26 -28 74 -68 107 -89z
m848 100 c-25 -43 -118 -144 -156 -170 -18 -12 -5 3 29 34 33 30 78 81 99 111
42 61 57 74 28 25z m-1052 -26 c13 -16 12 -17 -3 -4 -10 7 -18 15 -18 17 0 8
8 3 21 -13z m99 -110 c0 -8 -9 0 -50 45 l-45 47 48 -45 c26 -24 47 -45 47 -47z
m95 -66 c6 -6 -5 -1 -23 9 -18 10 -41 28 -50 38 -15 18 47 -23 73 -47z m105
53 c8 -5 11 -10 5 -10 -5 0 -17 5 -25 10 -8 5 -10 10 -5 10 6 0 17 -5 25 -10z
m129 -36 c9 -8 -45 -2 -64 6 -14 7 -8 8 20 3 22 -3 42 -7 44 -9z m246 6 c-11
-5 -31 -8 -45 -8 -23 0 -22 1 5 8 42 11 65 11 40 0z m-112 -17 c-24 -2 -62 -2
-85 0 -24 2 -5 4 42 4 47 0 66 -2 43 -4z m297 2 c0 -2 -10 -9 -22 -15 -22 -11
-22 -10 -4 4 21 17 26 19 26 11z m-510 -66 c35 -11 80 -20 100 -20 32 -2 32
-2 6 -6 -34 -5 -151 22 -186 43 -16 10 -18 13 -5 8 11 -4 49 -15 85 -25z m420
16 c0 -12 -134 -43 -205 -48 l-80 -6 95 14 c52 8 113 21 135 29 44 16 55 18
55 11z"/>
<path d="M1525 2979 c-54 -103 -81 -416 -51 -587 9 -51 25 -119 37 -150 11
-31 21 -73 23 -92 4 -39 45 -141 84 -210 70 -121 203 -271 307 -345 178 -127
395 -183 671 -172 83 3 150 10 160 17 17 10 16 11 -6 6 -64 -14 -243 -18 -339
-7 -266 31 -440 110 -600 272 -60 60 -145 171 -184 239 -30 52 -76 170 -81
209 -2 14 -11 46 -21 71 -69 186 -70 514 -1 710 26 75 26 88 1 39z"/>
<path d="M1376 2773 c-39 -211 -8 -488 76 -685 36 -84 36 -51 1 44 -75 198
-99 420 -69 617 9 57 14 106 12 108 -2 2 -11 -36 -20 -84z"/>
<path d="M3485 2790 c3 -5 8 -10 11 -10 2 0 4 5 4 10 0 6 -5 10 -11 10 -5 0
-7 -4 -4 -10z"/>
<path d="M3535 2705 c2 -22 7 -63 10 -91 3 -29 1 -92 -5 -140 -19 -175 -72
-322 -164 -459 -43 -64 -44 -67 -11 -30 52 57 131 224 162 340 22 84 26 122
26 240 1 92 -3 147 -11 160 -10 17 -11 15 -7 -20z"/>
<path d="M1585 2260 c12 -43 115 -222 170 -295 30 -38 75 -90 101 -115 44 -41
43 -39 -10 20 -85 95 -141 177 -208 303 -32 62 -56 101 -53 87z"/>
<path d="M3258 1923 c-22 -27 -30 -43 -20 -43 4 0 18 14 30 30 24 32 15 42
-10 13z"/>
<path d="M3227 1815 c-31 -24 -97 -66 -145 -93 -411 -232 -797 -212 -1144 58
-16 12 -28 18 -28 13 0 -15 113 -92 200 -137 146 -75 269 -106 421 -106 156 0
304 37 475 120 103 50 284 165 284 181 0 12 1 13 -63 -36z"/>
<path d="M3160 1809 c-28 -25 -36 -36 -20 -28 35 17 80 51 80 61 0 15 -15 7
-60 -33z"/>
<path d="M3365 1806 c-6 -8 -30 -38 -54 -68 -35 -41 -38 -46 -12 -23 41 38 95
105 84 105 -4 0 -13 -6 -18 -14z"/>
<path d="M3172 1605 c-39 -30 -108 -75 -154 -100 -88 -48 -93 -63 -5 -19 65
33 149 91 202 138 60 53 38 43 -43 -19z"/>
</g>
</svg>